<svg width="16" height="16" viewBox="0 0 16 16" fill="none" xmlns="http://www.w3.org/2000/svg">
<g clip-path="url(#clip0_206_408)">
<path d="M8.186 1.11297C8.06662 1.06513 7.93338 1.06513 7.814 1.11297L1.846 3.49997L4.25 4.46097L10.404 1.99997L8.186 1.11297ZM11.75 2.53897L5.596 4.99997L8 5.96097L14.154 3.49997L11.75 2.53897ZM15 4.23897L8.5 6.83897V14.761L15 12.161V4.23897ZM7.5 14.762V6.83797L1 4.23897V12.162L7.5 14.762ZM7.443 0.183972C7.80057 0.040971 8.19943 0.040971 8.557 0.183972L15.686 3.03597C15.7787 3.07312 15.8581 3.13716 15.9141 3.21986C15.9701 3.30256 16 3.40012 16 3.49997V12.162C15.9999 12.3618 15.9399 12.557 15.8278 12.7224C15.7157 12.8878 15.5566 13.0158 15.371 13.09L8.186 15.964C8.06662 16.0118 7.93338 16.0118 7.814 15.964L0.63 13.09C0.444251 13.016 0.284942 12.888 0.172642 12.7226C0.0603417 12.5572 0.000206329 12.3619 0 12.162L0 3.49997C2.32399e-05 3.40012 0.0299437 3.30256 0.085907 3.21986C0.14187 3.13716 0.221313 3.07312 0.314 3.03597L7.443 0.183972Z" fill="white"/>
</g>
<defs>
<clipPath id="clip0_206_408">
<rect width="16" height="16" fill="white"/>
</clipPath>
</defs>
</svg>
